# xmcd
#
# Track frame offsets:
#	150
#	8193
#	27863
#	44448
#	63125
#	78492
#	105774
# Disc length: 1667 seconds
# Revision: 1
# Processed by: cddbd v1.5.2PL0 Copyright (c) Steve Scherf et al.
#
# Submitted via: libkcddb 0.10
#
DISCID=45068107
DTITLE=Still looking for the blue blossom - Two blue
DYEAR=1900
DGENRE=Unknown
TTITLE0=End of the line
TTITLE1=Autumn leaves
TTITLE2=Marbletown
TTITLE3=Love in Vain
TTITLE4=Worksong
TTITLE5=Willing
TTITLE6=Riverboat Song
EXTD=
EXTT0=
EXTT1=
EXTT2=
EXTT3=
EXTT4=
EXTT5=
EXTT6=
PLAYORDER=
